# xmcd
#
# Track frame offsets:
#	150
#	16256
#	32871
#	48072
#	62561
#	78276
#	94277
#	109528
#	126189
#	140675
#	156460
#	168358
#	183265
#	199920
#	217039
#	230192
#	247698
#	265195
#
# Disc length: 3742 seconds
#
# Revision: 1
# Processed by: cddbd v1.5.2PL0 Copyright (c) Steve Scherf et al.
# Submitted via: audiograbber 1.83.01
#
DISCID=f70e9c12
DTITLE=Various Artist - Advance Warning Kicking Country 02
DYEAR=1900
DGENRE=Country
TTITLE0=David Ball - I'll Never Make It Through This Fall
TTITLE1=John Berry - She's Taken A Shine
TTITLE2=Blackhawk - King Of the World
TTITLE3=BR5-49 - Even If It's Wrong
TTITLE4=Paul Brandt - I Meant To Do That
TTITLE5=Brooks and Dunn - Man This Lonely, A
TTITLE6=Deanna Carter - We Danced Away
TTITLE7=Billy Dean - I Wouldn't Be A Man
TTITLE8=Diamond Rio - Holdin'
TTITLE9=George Ducas - Everytime She Passes By
TTITLE10=Alan Jackson - Little Bitty
TTITLE11=Tracy Lawrence - Is That A Tear
TTITLE12=Chris Ledoux - Five Dollar Fine
TTITLE13=Lyle Lovett - Private Conversation
TTITLE14=Neal McCoy - That Woman Of Mine
TTITLE15=Tim McGraw - Maybe We Should Just Sleep On It
TTITLE16=John Michael Montgomery - Friends
TTITLE17=Travis Tritt - Where Corn Don't Grow
EXTD=
EXTT0=
EXTT1=
EXTT2=
EXTT3=
EXTT4=
EXTT5=
EXTT6=
EXTT7=
EXTT8=
EXTT9=
EXTT10=
EXTT11=
EXTT12=
EXTT13=
EXTT14=
EXTT15=
EXTT16=
EXTT17=
PLAYORDER=
